<svg xmlns="http://www.w3.org/2000/svg" data-name="Layer 1" width="679.666" height="650.599"><path d="M670.666 650.6h-531a9.01 9.01 0 0 1-9-9v-327a9.01 9.01 0 0 1 9-9h531a9.01 9.01 0 0 1 9 9v327a9.01 9.01 0 0 1-9 9Zm-531-343a7.008 7.008 0 0 0-7 7v327a7.008 7.008 0 0 0 7 7h531a7.008 7.008 0 0 0 7-7v-327a7.008 7.008 0 0 0-7-7Z" fill="#3f3d56"/><path d="M609.333 586.3h-42a2.503 2.503 0 0 1-2.5-2.5v-22a2.503 2.503 0 0 1 2.5-2.5h30.25a1.5 1.5 0 0 1 0 3h-28.25a1.502 1.502 0 0 0-1.5 1.5v18a1.502 1.502 0 0 0 1.5 1.5h38a1.502 1.502 0 0 0 1.5-1.5v-9.536a1.5 1.5 0 0 1 3 0V583.8a2.503 2.503 0 0 1-2.5 2.5Z" fill="#3f3d56"/><path d="M535.166 365.6h-323a4.5 4.5 0 0 1 0-9h323a4.5 4.5 0 0 1 0 9ZM535.166 402.6h-323a4.5 4.5 0 0 1 0-9h323a4.5 4.5 0 0 1 0 9ZM535.166 439.6h-323a4.5 4.5 0 0 1 0-9h323a4.5 4.5 0 0 1 0 9ZM535.166 476.6h-323a4.5 4.5 0 0 1 0-9h323a4.5 4.5 0 0 1 0 9ZM535.166 513.6h-323a4.5 4.5 0 0 1 0-9h323a4.5 4.5 0 0 1 0 9Z" fill="#ccc"/><circle cx="589.166" cy="361.099" r="13" fill="#6c63ff"/><circle cx="589.166" cy="398.099" r="13" fill="#ff6584"/><circle cx="589.166" cy="435.099" r="13" fill="#6c63ff"/><circle cx="589.166" cy="472.099" r="13" fill="#f2f2f2"/><circle cx="589.166" cy="509.099" r="13" fill="#f2f2f2"/><path d="M588.833 579.257a2.797 2.797 0 0 1-1.984-.82l-8.87-8.87a1.5 1.5 0 0 1 0-2.121 1.537 1.537 0 0 1 2.122 0l8.378 8.379a.51.51 0 0 0 .707 0l27.88-27.879a1.536 1.536 0 0 1 2.12 0 1.5 1.5 0 0 1 0 2.121l-28.369 28.37a2.798 2.798 0 0 1-1.984.82Z" fill="#6c63ff"/><ellipse cx="588.833" cy="600.299" rx="69" ry="4" opacity=".1" style="isolation:isolate"/><path d="M79.753 245.921H4.48A4.485 4.485 0 0 1 0 241.441v-39.429a4.485 4.485 0 0 1 4.48-4.48h54.215a2.688 2.688 0 1 1 0 5.376H8.064a2.691 2.691 0 0 0-2.688 2.689v32.26a2.691 2.691 0 0 0 2.688 2.687h68.103a2.691 2.691 0 0 0 2.689-2.688v-17.089a2.688 2.688 0 0 1 5.376 0v20.674a4.485 4.485 0 0 1-4.48 4.48Z" fill="#3f3d56"/><path d="M43.013 233.299a5.012 5.012 0 0 1-3.556-1.47l-15.896-15.896a2.69 2.69 0 0 1 0-3.801 2.754 2.754 0 0 1 3.802 0l15.016 15.016a.914.914 0 0 0 1.266 0l49.967-49.964a2.753 2.753 0 0 1 3.801 0 2.688 2.688 0 0 1 0 3.801l-50.844 50.843a5.015 5.015 0 0 1-3.556 1.47Z" fill="#6c63ff"/><rect x="398.956" y="406.338" width="99" height="29" rx="4" transform="rotate(-180 318.372 358.488)" fill="#2f2e41"/><path d="M231.789 280.638h-138a6 6 0 0 0-6 6v95a6 6 0 0 0 6 6h17a6 6 0 0 0 6-6v-72h22v73a6 6 0 0 0 6 6h17a6 6 0 0 0 6-6v-73h64a6 6 0 0 0 6-6v-17a6 6 0 0 0-6-6Z" fill="#2f2e41"/><path d="m266.428 311.198-131.152-2.761a6 6 0 0 1-5.723-7.335l31.932-139.8a6 6 0 0 1 5.85-4.664h34.34a49.155 49.155 0 0 1 48.114 39.092l22.638 108.24a6 6 0 0 1-6 7.228Z" fill="#2f2e41"/><circle cx="185.208" cy="90.654" r="53.519" fill="#6c63ff"/><path d="M160.928 61.837c-6.246-1.473-12.99-3.456-17.446-8.374-3.793-4.186-5.572-10.648-2.211-15.611 3.069-4.533 9.122-6.196 14.218-7.046 5.922-.987 12.008-1.132 17.565-3.652a18.174 18.174 0 0 0 6.932-5.5 47.272 47.272 0 0 0 4.386-7.548 27.527 27.527 0 0 1 4.602-7.069 13.932 13.932 0 0 1 7.895-3.854c6.704-1.02 13.07 2.08 18.345 5.927a79.663 79.663 0 0 1 13.805 13.1 86.633 86.633 0 0 1 18.476 38.152c.39 1.89 3.282 1.09 2.892-.798a89.462 89.462 0 0 0-16.868-36.523 86.528 86.528 0 0 0-14.107-14.457C213.976 4.205 207.699.388 200.549.027a19.437 19.437 0 0 0-9.589 1.904 17.446 17.446 0 0 0-6.681 6.223c-3.369 5.109-4.994 11.711-10.43 15.167-5.505 3.501-12.397 3.536-18.642 4.51-5.555.866-11.74 2.696-15.5 7.157-4.159 4.934-4.003 11.658-.896 17.1 3.452 6.047 9.866 9.346 16.307 11.314a80.04 80.04 0 0 0 5.013 1.328c1.877.443 2.678-2.449.797-2.893ZM190.99 108.523c-3.306-.093-7.422-.208-10.59-2.522a8.132 8.132 0 0 1-3.2-6.074 5.471 5.471 0 0 1 1.861-4.492c1.655-1.4 4.072-1.728 6.678-.96l-2.699-19.727 1.982-.272 3.173 23.19-1.655-.758c-1.92-.881-4.552-1.327-6.188.054a3.513 3.513 0 0 0-1.153 2.895 6.147 6.147 0 0 0 2.381 4.528c2.466 1.801 5.746 2.034 9.467 2.138ZM162.469 76.449h10.771v2h-10.771zM196.469 76.449h10.771v2h-10.771z" fill="#2f2e41"/><path d="M82.838 258.872a6.508 6.508 0 0 1-5.925-3.805l-6.119-13.432a6.5 6.5 0 0 1 3.22-8.609l111.946-50.999a6.508 6.508 0 0 1 8.61 3.22l6.119 13.432a6.509 6.509 0 0 1-3.22 8.61L85.522 258.289a6.468 6.468 0 0 1-2.685.584Z" fill="#6c63ff"/></svg>